<svg xmlns="http://www.w3.org/2000/svg" version="1.1" xmlns:xlink="http://www.w3.org/1999/xlink" xmlns:svgjs="http://svgjs.dev/svgjs" width="1500" height="2590" viewBox="0 0 1500 2590"><g transform="matrix(1,0,0,1,-1.5810719892353973,1.0485829959513921)"><svg viewBox="0 0 143 247" data-background-color="#ffffff" preserveAspectRatio="xMidYMid meet" height="2590" width="1500" xmlns="http://www.w3.org/2000/svg" xmlns:xlink="http://www.w3.org/1999/xlink"><g id="tight-bounds" transform="matrix(1,0,0,1,0.15072886297377863,-0.09999999999999432)"><svg viewBox="0 0 142.69854227405247 247.2" height="247.2" width="142.69854227405247"><g><svg viewBox="0 0 142.69854227405247 247.2" height="247.2" width="142.69854227405247"><g><svg viewBox="0 0 142.69854227405247 247.2" height="247.2" width="142.69854227405247"><g id="textblocktransform"><svg viewBox="0 0 142.69854227405247 247.2" height="247.2" width="142.69854227405247" id="textblock"><g><svg viewBox="0 0 142.69854227405247 247.2" height="247.2" width="142.69854227405247"><g transform="matrix(1,0,0,1,0,0)"><svg width="142.69854227405247" viewBox="3.5 -34.3 19.8 34.3" height="247.2" data-palette-color="#1ebbd7"><path d="M3.5 0L3.5-34.3 23.3-34.3 23.3-30.3 7.9-30.3 7.9-19.2 21.5-19.2 21.5-15.2 7.9-15.2 7.9 0 3.5 0Z" opacity="1" transform="matrix(1,0,0,1,0,0)" fill="#1ebbd7" class="wordmark-text-0" data-fill-palette-color="primary" id="text-0"></path></svg></g></svg></g></svg></g></svg></g></svg></g><defs></defs></svg><rect width="142.69854227405247" height="247.2" fill="none" stroke="none" visibility="hidden"></rect></g></svg></g></svg>