<svg xmlns="http://www.w3.org/2000/svg" version="1.1" xmlns:xlink="http://www.w3.org/1999/xlink" xmlns:svgjs="http://svgjs.dev/svgjs" width="1500" height="1500" viewBox="0 0 1500 1500"><rect width="1500" height="1500" fill="#1ebbd7"></rect><g transform="matrix(0.6666666666666666,0,0,0.6666666666666666,249.39393939393938,649.9429766991773)"><svg viewBox="0 0 396 79" data-background-color="#1ebbd7" preserveAspectRatio="xMidYMid meet" height="299" width="1500" xmlns="http://www.w3.org/2000/svg" xmlns:xlink="http://www.w3.org/1999/xlink"><g id="tight-bounds" transform="matrix(1,0,0,1,0.2400000000000091,0.1547065590217187)"><svg viewBox="0 0 395.52 78.69058688195658" height="78.69058688195658" width="395.52"><g><svg viewBox="0 0 424.4943702746653 84.45517578124999" height="78.69058688195658" width="395.52"><g><svg viewBox="0 0 424.4943702746653 84.45517578124999" height="84.45517578124999" width="424.4943702746653"><g id="textblocktransform"><svg viewBox="0 0 424.4943702746653 84.45517578124999" height="84.45517578124999" width="424.4943702746653" id="textblock"><g><svg viewBox="0 0 424.4943702746653 84.45517578124999" height="84.45517578124999" width="424.4943702746653"><g><svg><g></g><g></g></svg></g><g><svg><g></g><g><svg></svg></g></svg></g><g id="text-0"><svg viewBox="0 0 424.4943702746653 84.45517578124999" height="84.45517578124999" width="424.4943702746653"><g><svg xmlns="http://www.w3.org/2000/svg" xmlns:xlink="http://www.w3.org/1999/xlink" version="1.1" x="0" y="0" viewBox="11.868000000000006 4.012 76.26299999999999 58.664" enable-background="new 0 0 100 100" xml:space="preserve" height="84.45517578124999" width="109.79144058716534" class="icon-cg-0" data-fill-palette-color="accent" id="cg-0"><g fill="#ffffff" data-fill-palette-color="accent"><path d="M55.133 11.345c14.129 0 25.585 13.045 25.66 29.169 0 0.055 0.005 0.107 0.005 0.162 0 8.101-6.565 14.667-14.665 14.667h-0.001H30.934c-6.479 0-11.732-5.254-11.732-11.733 0-6.381 5.096-11.569 11.439-11.725C33.91 19.982 43.637 11.345 55.133 11.345M55.133 4.012c-7.344 0-14.289 2.614-20.089 7.56-4.338 3.698-7.725 8.44-9.95 13.885-2.924 0.937-5.594 2.578-7.795 4.829-3.502 3.581-5.431 8.313-5.431 13.324 0 10.512 8.553 19.065 19.065 19.066h35.198c12.13 0 22-9.867 22-22 0-0.096-0.003-0.19-0.006-0.285-0.064-9.538-3.396-18.538-9.387-25.35C72.484 7.93 64.102 4.012 55.133 4.012L55.133 4.012z" fill="#ffffff" data-fill-palette-color="accent"></path></g></svg></g><g transform="matrix(1,0,0,1,129.73079605591533,0)"><svg width="294.76357421874997" viewBox="3.61 -39.11 182.17 52.2" height="84.45517578124999" data-palette-color="#ffffff"><path d="M14.82-3.3L14.82-3.3Q16.43-3.3 17.8-3.72 19.17-4.15 20.14-4.94 21.12-5.74 21.67-6.84 22.22-7.93 22.22-9.28L22.22-9.28Q22.22-10.86 21.47-11.96 20.73-13.06 19.52-13.89 18.31-14.72 16.75-15.37 15.19-16.02 13.57-16.69 11.96-17.36 10.4-18.14 8.84-18.92 7.63-20.04 6.42-21.17 5.68-22.69 4.93-24.22 4.93-26.39L4.93-26.39Q4.93-28.69 5.81-30.52 6.69-32.35 8.26-33.63 9.84-34.91 12-35.58 14.16-36.25 16.75-36.25L16.75-36.25Q18.33-36.25 20.73-35.95 23.12-35.64 25.81-34.84L25.81-34.84 25-30.59 24.51-30.35Q23.17-30.96 21.9-31.37 20.63-31.79 19.51-32.03 18.38-32.28 17.43-32.37 16.48-32.47 15.77-32.47L15.77-32.47Q14.33-32.47 13.17-32.12 12.01-31.76 11.19-31.09 10.38-30.42 9.92-29.46 9.47-28.49 9.47-27.27L9.47-27.27Q9.47-25.63 10.22-24.49 10.96-23.34 12.19-22.46 13.43-21.58 14.99-20.9 16.55-20.21 18.18-19.53 19.8-18.85 21.36-18.07 22.92-17.29 24.16-16.25 25.39-15.21 26.14-13.79 26.88-12.38 26.88-10.4L26.88-10.4Q26.88-8.23 25.94-6.26 25-4.3 23.3-2.8 21.61-1.29 19.23-0.4 16.85 0.49 13.96 0.49L13.96 0.49Q12.74 0.49 11.41 0.32 10.08 0.15 8.74-0.16 7.4-0.46 6.09-0.9 4.79-1.34 3.61-1.88L3.61-1.88 4.44-6.15 4.93-6.4Q7.42-4.96 9.97-4.13 12.52-3.3 14.82-3.3ZM34.79 0L34.79-39.11 39.43-39.11 39.43 0 34.79 0ZM57.44 0L51.68 0 41.09-13.82 51.54-25.88 56.56-25.88 45.92-14.18 57.44 0ZM69.92 0L60.25-25.88 65.47-25.88 71.14-8.4 72.31-3.66 72.8-3.66 73.97-8.4 79.63-25.88 84.42-25.88 69.87 13.09 65.38 13.09 70.8 0 69.92 0ZM90.18-1.12L90.18-39.11 94.82-39.11 94.82-21.68Q95.94-22.71 97.04-23.56 98.14-24.41 99.3-25.04 100.46-25.66 101.68-26.01 102.9-26.37 104.26-26.37L104.26-26.37Q106.66-26.37 108.55-25.33 110.44-24.29 111.75-22.56 113.05-20.83 113.75-18.57 114.45-16.31 114.45-13.87L114.45-13.87Q114.45-10.89 113.42-8.28 112.39-5.66 110.42-3.72 108.44-1.78 105.57-0.65 102.7 0.49 99.04 0.49L99.04 0.49Q97.11 0.49 94.83 0.12 92.55-0.24 90.18-1.12L90.18-1.12ZM94.82-18.6L94.82-4.49Q96.28-3.83 97.76-3.53 99.24-3.22 100.53-3.22L100.53-3.22Q102.78-3.22 104.47-4.03 106.17-4.83 107.3-6.19 108.44-7.54 109-9.3 109.56-11.06 109.56-12.99L109.56-12.99Q109.56-14.77 109.09-16.47 108.61-18.16 107.68-19.49 106.76-20.83 105.41-21.64 104.07-22.46 102.31-22.46L102.31-22.46Q100.75-22.46 98.88-21.63 97.01-20.8 94.82-18.6L94.82-18.6ZM121.43 0L121.43-39.11 126.06-39.11 126.06 0 121.43 0ZM134.66-8.69L134.66-25.88 139.29-25.88 139.29-9.47Q139.29-8.13 139.67-7.02 140.05-5.91 140.72-5.1 141.39-4.3 142.33-3.86 143.27-3.42 144.42-3.42L144.42-3.42Q145.42-3.42 146.39-3.76 147.35-4.1 148.24-4.65 149.13-5.2 149.93-5.92 150.72-6.64 151.4-7.42L151.4-7.42 151.4-25.88 156.04-25.88 156.04 0 152.43 0 151.65-4.44Q150.74-3.61 149.72-2.75 148.69-1.88 147.53-1.16 146.37-0.44 145.08 0.02 143.79 0.49 142.37 0.49L142.37 0.49Q140.71 0.49 139.31-0.17 137.9-0.83 136.86-2.04 135.83-3.25 135.24-4.94 134.66-6.64 134.66-8.69L134.66-8.69ZM185.04-4.83L185.04-2.2Q184.12-1.54 182.91-1.04 181.7-0.54 180.4-0.2 179.11 0.15 177.8 0.32 176.5 0.49 175.38 0.49L175.38 0.49Q172.89 0.49 170.64-0.34 168.39-1.17 166.71-2.78 165.02-4.39 164.02-6.77 163.02-9.16 163.02-12.26L163.02-12.26Q163.02-15.45 164.08-18.07 165.15-20.68 166.93-22.52 168.71-24.37 171.04-25.37 173.37-26.37 175.94-26.37L175.94-26.37Q178.01-26.37 179.81-25.67 181.6-24.98 182.93-23.58 184.26-22.19 185.02-20.1 185.78-18.02 185.78-15.23L185.78-15.23Q185.78-14.67 185.73-13.89 185.68-13.11 185.53-12.26L185.53-12.26 167.86-12.26Q167.86-10.16 168.6-8.51 169.35-6.86 170.7-5.73 172.06-4.59 173.94-4 175.82-3.42 178.09-3.42L178.09-3.42Q178.65-3.42 179.45-3.47 180.26-3.52 181.19-3.66 182.11-3.81 183.11-4.09 184.12-4.37 185.04-4.83L185.04-4.83ZM167.86-15.14L181.38-15.14Q181.38-16.97 180.87-18.37 180.36-19.78 179.48-20.73 178.6-21.68 177.44-22.17 176.28-22.66 174.96-22.66L174.96-22.66Q173.5-22.66 172.2-22.06 170.91-21.46 169.94-20.43 168.98-19.41 168.42-18.04 167.86-16.67 167.86-15.14L167.86-15.14Z" opacity="1" transform="matrix(1,0,0,1,0,0)" fill="#ffffff" class="wordmark-text-0" data-fill-palette-color="primary"></path></svg></g></svg></g></svg></g></svg></g></svg></g></svg></g><defs></defs></svg><rect width="395.52" height="78.69058688195658" fill="none" stroke="none" visibility="hidden"></rect></g></svg></g></svg>